HIERARCHY
ROOT hip
{
  OFFSET 0 0 0
  CHANNELS 6 Xposition Yposition Zposition Zrotation Yrotation Xrotation
  JOINT abdomen
  {
    OFFSET 0 20.6881 -0.73152
    CHANNELS 3 Zrotation Xrotation Yrotation
    JOINT chest
    {
      OFFSET 0 11.7043 -0.48768
      CHANNELS 3 Zrotation Xrotation Yrotation
      JOINT neck
      {
        OFFSET 0 22.1894 -2.19456
        CHANNELS 3 Zrotation Xrotation Yrotation
        JOINT head
        {
          OFFSET -0.24384 7.07133 1.2192
          CHANNELS 3 Zrotation Xrotation Yrotation
          JOINT leftEye
          {
            OFFSET 4.14528 8.04674 8.04672
            CHANNELS 3 Zrotation Xrotation Yrotation
            End Site
            {
              OFFSET 1 0 0
            }
          }
          JOINT rightEye
          {
            OFFSET -3.6576 8.04674 8.04672
            CHANNELS 3 Zrotation Xrotation Yrotation
            End Site
            {
              OFFSET 1 0 0
            }
          }
        }
      }
      JOINT rCollar
      {
        OFFSET -2.68224 19.2634 -4.8768
        CHANNELS 3 Zrotation Xrotation Yrotation
        JOINT rShldr
        {
          OFFSET -8.77824 -1.95073 1.46304
          CHANNELS 3 Zrotation Xrotation Yrotation
          JOINT rForeArm
          {
            OFFSET -28.1742 -1.7115 0.48768
            CHANNELS 3 Zrotation Xrotation Yrotation
            JOINT rHand
            {
              OFFSET -22.5879 0.773209 7.07136
              CHANNELS 3 Zrotation Xrotation Yrotation
              JOINT rThumb1
              {
                OFFSET -1.2192 -0.487915 3.41376
                CHANNELS 3 Zrotation Xrotation Yrotation
                JOINT rThumb2
                {
                  OFFSET -3.37035 -0.52449 3.41376
                  CHANNELS 3 Zrotation Xrotation Yrotation
                  End Site
                  {
                    OFFSET -1.78271 -1.18214 1.43049
                  }
                }
              }
              JOINT rIndex1
              {
                OFFSET -7.75947 0.938293 5.60832
                CHANNELS 3 Zrotation Xrotation Yrotation
                JOINT rIndex2
                {
                  OFFSET -2.54057 -0.884171 1.56538
                  CHANNELS 3 Zrotation Xrotation Yrotation
                  End Site
                  {
                    OFFSET -1.62519 -0.234802 1.16502
                  }
                }
              }
              JOINT rMid1
              {
                OFFSET -8.24714 1.18213 3.41376
                CHANNELS 3 Zrotation Xrotation Yrotation
                JOINT rMid2
                {
                  OFFSET -3.10165 -0.590103 1.0647
                  CHANNELS 3 Zrotation Xrotation Yrotation
                  End Site
                  {
                    OFFSET -2.48547 -0.328903 0.83742
                  }
                }
              }
              JOINT rRing1
              {
                OFFSET -8.82822 0.546677 1.51678
                CHANNELS 3 Zrotation Xrotation Yrotation
                JOINT rRing2
                {
                  OFFSET -2.60934 -0.819778 -0.0198488
                  CHANNELS 3 Zrotation Xrotation Yrotation
                  End Site
                  {
                    OFFSET -2.33842 -0.294052 0.168128
                  }
                }
              }
              JOINT rPinky1
              {
                OFFSET -8.27202 -0.0477905 -0.4584
                CHANNELS 3 Zrotation Xrotation Yrotation
                JOINT rPinky2
                {
                  OFFSET -1.82734 -0.647385 -0.700984
                  CHANNELS 3 Zrotation Xrotation Yrotation
                  End Site
                  {
                    OFFSET -1.69225 -0.51767 -0.607171
                  }
                }
              }
            }
          }
        }
      }
      JOINT lCollar
      {
        OFFSET 2.68224 19.2634 -4.8768
        CHANNELS 3 Zrotation Xrotation Yrotation
        JOINT lShldr
        {
          OFFSET 8.77824 -1.95073 1.46304
          CHANNELS 3 Zrotation Xrotation Yrotation
          JOINT lForeArm
          {
            OFFSET 28.1742 -1.7115 0.48768
            CHANNELS 3 Zrotation Xrotation Yrotation
            JOINT lHand
            {
              OFFSET 22.5879 0.773209 7.07136
              CHANNELS 3 Zrotation Xrotation Yrotation
              JOINT lThumb1
              {
                OFFSET 1.2192 -0.487915 3.41376
                CHANNELS 3 Zrotation Xrotation Yrotation
                JOINT lThumb2
                {
                  OFFSET 3.37035 -0.52449 3.41376
                  CHANNELS 3 Zrotation Xrotation Yrotation
                  End Site
                  {
                    OFFSET 1.78271 -1.18214 1.43049
                  }
                }
              }
              JOINT lIndex1
              {
                OFFSET 7.75947 0.938293 5.60832
                CHANNELS 3 Zrotation Xrotation Yrotation
                JOINT lIndex2
                {
                  OFFSET 2.54057 -0.884171 1.56538
                  CHANNELS 3 Zrotation Xrotation Yrotation
                  End Site
                  {
                    OFFSET 1.62519 -0.234802 1.16502
                  }
                }
              }
              JOINT lMid1
              {
                OFFSET 8.24714 1.18213 3.41376
                CHANNELS 3 Zrotation Xrotation Yrotation
                JOINT lMid2
                {
                  OFFSET 3.10165 -0.590103 1.0647
                  CHANNELS 3 Zrotation Xrotation Yrotation
                  End Site
                  {
                    OFFSET 2.48547 -0.328903 0.83742
                  }
                }
              }
              JOINT lRing1
              {
                OFFSET 8.82822 0.546677 1.51678
                CHANNELS 3 Zrotation Xrotation Yrotation
                JOINT lRing2
                {
                  OFFSET 2.60934 -0.819778 -0.0198488
                  CHANNELS 3 Zrotation Xrotation Yrotation
                  End Site
                  {
                    OFFSET 2.33842 -0.294052 0.168128
                  }
                }
              }
              JOINT lPinky1
              {
                OFFSET 8.27202 -0.0477905 -0.4584
                CHANNELS 3 Zrotation Xrotation Yrotation
                JOINT lPinky2
                {
                  OFFSET 1.82734 -0.647385 -0.700984
                  CHANNELS 3 Zrotation Xrotation Yrotation
                  End Site
                  {
                    OFFSET 1.69225 -0.51767 -0.607171
                  }
                }
              }
            }
          }
        }
      }
    }
  }
  JOINT rButtock
  {
    OFFSET -8.77824 4.35084 1.2192
    CHANNELS 3 Zrotation Xrotation Yrotation
    JOINT rThigh
    {
      OFFSET 0 -1.70687 -2.19456
      CHANNELS 3 Zrotation Xrotation Yrotation
      JOINT rShin
      {
        OFFSET 0 -36.8199 0.73152
        CHANNELS 3 Zrotation Xrotation Yrotation
        JOINT rFoot
        {
          OFFSET 0.73152 -45.1104 -5.12064
          CHANNELS 3 Zrotation Xrotation Yrotation
          End Site
          {
            OFFSET -1.1221 -3.69964 12.103
          }
        }
      }
    }
  }
  JOINT lButtock
  {
    OFFSET 8.77824 4.35084 1.2192
    CHANNELS 3 Zrotation Xrotation Yrotation
    JOINT lThigh
    {
      OFFSET 0 -1.70687 -2.19456
      CHANNELS 3 Zrotation Xrotation Yrotation
      JOINT lShin
      {
        OFFSET 0 -36.8199 0.73152
        CHANNELS 3 Zrotation Xrotation Yrotation
        JOINT lFoot
        {
          OFFSET -0.73152 -45.1104 -5.12064
          CHANNELS 3 Zrotation Xrotation Yrotation
          End Site
          {
            OFFSET 1.1221 -3.69964 12.103
          }
        }
      }
    }
  }
}
MOTION
Frames:	6
Frame Time:	0.00833333
156.433 68.9761 9.61959 0.0 0.0 -0.0 0.0 0.0 -0.0 -0.0 -0.0 0.0 12.076931 10.538806 104.787978 -7.087137 14.355986 -105.012253 -0.0 -0.0 0.0 -0.0 -0.0 0.0 -155.504155 -3.514523 161.838528 -171.730711 -47.005088 157.363052 8.644896 -61.425656 4.87098 -5.269814 16.626411 0.197087 51.059793 -41.203951 12.856726 -145.047747 -14.879968 122.640613 -50.386399 40.826202 40.02487 -176.971894 -29.801508 120.211177 -36.036059 51.723116 29.832321 -162.600675 2.121696 145.083172 -73.625838 72.972031 91.55425 -46.039266 -69.273265 -63.439962 -111.059157 -41.159436 -109.11664 -21.941586 -42.040903 -24.270509 9.651699 34.836178 -11.199233 -7.342948 15.814737 2.867277 -46.464211 -79.833828 -42.074319 10.31958 30.612548 -1.752874 176.59845 -14.213085 -89.690967 -170.204937 -26.266877 -100.598415 100.824001 37.73392 -85.162146 167.322692 -28.066328 -125.131343 148.319259 24.248091 -135.13259 0.036355 17.713841 -1.867348 -0.003602 0.605735 -0.190285 0.030215 -0.24894 0.145662 -12.632866 42.933991 -10.532639 159.910424 42.157916 146.294076 -0.0 0.0 -0.0 -0.0 -0.0 -0.0 6.817693 3.579341 71.6195 -0.2285 -44.820994 -86.054404 -0.0 0.0 -0.0 -0.0 -0.0 -0.0 -6.817693 3.579341 -71.6195 0.2285 -44.820994 86.054404
157.357 69.0563 9.88192 0.0 0.0 -0.0 0.0 0.0 -0.0 -0.0 -0.0 0.0 12.076931 10.538806 104.787978 -7.087137 14.355986 -105.012253 0.0 -0.0 -0.0 0.0 -0.0 -0.0 -155.504155 -3.514523 161.838528 -171.730711 -47.005088 157.363052 8.644896 -61.425656 4.87098 -5.269814 16.626411 0.197087 51.059793 -41.203951 12.856726 -145.047747 -14.879968 122.640613 -50.386399 40.826202 40.02487 -176.971894 -29.801508 120.211177 -36.036059 51.723116 29.832321 -162.600675 2.121696 145.083172 -73.625838 72.972031 91.55425 -46.039266 -69.273265 -63.439962 -111.059157 -41.159436 -109.11664 -21.941586 -42.040903 -24.270509 9.651699 34.836178 -11.199233 -7.278971 13.973535 2.962734 -2.054963 -56.151317 1.131266 1.937276 6.20315 0.107504 -114.538671 -50.245352 -55.721798 13.014215 -73.291631 36.918189 127.853541 18.70338 -107.507054 -12.587484 5.795322 14.732713 171.805991 -40.921878 -145.170237 -5.479144 0.538615 -2.171508 71.925376 72.974006 -89.771887 160.329964 2.493917 173.678982 -32.646368 83.587662 -5.695192 153.864612 26.104675 142.948091 -0.0 0.0 -0.0 -0.0 -0.0 -0.0 6.817693 3.579341 71.6195 -0.2285 -44.820994 -86.054404 -0.0 0.0 -0.0 -0.0 -0.0 -0.0 -6.817693 3.579341 -71.6195 0.2285 -44.820994 86.054404
158.228 69.108 10.1399 0.0 0.0 -0.0 0.0 0.0 -0.0 -0.0 -0.0 0.0 12.076931 10.538806 104.787978 -7.087137 14.355986 -105.012253 -0.0 -0.0 0.0 -0.0 -0.0 0.0 -155.504155 -3.514523 161.838528 -171.730711 -47.005088 157.363052 -0.909921 -43.508451 -3.425397 0.411013 -1.310848 0.049582 -0.491581 0.484673 0.077556 66.997358 -78.746013 -0.068282 -100.824001 37.73392 85.162146 -176.550703 -47.339815 121.841797 -5.53097 14.5636 3.524392 7.031783 -22.075184 -2.433644 0.004672 0.917785 0.288305 -166.382186 -50.811732 178.474729 8.368306 26.426704 7.36241 -27.471808 -40.286774 -25.919256 9.651699 34.836178 -11.199233 -7.342948 15.814737 2.867277 -5.529108 -63.361814 -2.034866 3.633505 11.581103 0.029161 -176.199446 -20.970899 -88.563122 71.379125 8.074917 -18.87251 50.386399 40.826202 -40.02487 175.572724 -27.037047 -120.521899 170.291364 -36.751085 -145.340408 -93.027524 -76.580798 -61.521647 72.350995 72.974965 -90.218005 154.482678 -23.237835 169.22712 -3.20069 9.007595 -2.916097 153.929701 24.967193 145.991071 -180.0 75.749642 -0.0 -180.0 75.749642 -0.0 0.185714 12.975477 -165.372783 25.093363 5.255869 168.532928 -180.0 75.749642 -0.0 -180.0 75.749642 -0.0 -0.185714 12.975477 165.372783 -31.60102 3.395374 -170.098598
159.049 69.1469 10.3935 0.0 0.0 0.0 0.0 0.0 -0.0 -0.0 -0.0 0.0 12.076931 10.538806 104.787978 -7.087137 14.355986 -105.012253 0.0 -0.0 -0.0 0.0 -0.0 -0.0 -155.504155 -3.514523 161.838528 -171.730711 -47.005088 157.363052 7.343897 -59.818393 3.680669 -4.728369 14.977491 0.106124 -6.400704 6.175885 1.319094 29.552801 -41.309628 -12.789581 -160.10123 -33.161924 122.700876 19.032327 7.845583 -6.760014 78.537123 -80.919176 49.688177 -159.118017 6.218225 138.515797 0.004561 0.876454 0.275323 -166.530845 -14.73509 173.69941 -142.201314 3.268081 -139.144618 -138.523597 -5.289042 -137.294762 9.651699 34.836178 -11.199233 -7.702052 27.978734 2.26007 -169.917792 68.789898 -158.112574 -175.098084 -3.119653 -145.09997 89.136032 38.427358 -50.299234 132.243889 -20.921498 -78.554218 72.555137 43.282432 -59.932742 18.028568 39.589156 -0.261391 169.08961 -33.247392 -145.374931 34.138945 54.335725 -31.857017 -0.000474 0.063839 -0.020056 3.389532 29.345999 -4.662193 86.000836 -50.498128 84.371009 7.425204 -25.249827 9.154265 -180.0 75.749642 -0.0 -180.0 75.749642 -0.0 3.578477 0.491843 31.907225 109.059445 -57.836045 1.254731 -180.0 75.749642 -0.0 -180.0 75.749642 -0.0 -3.578477 0.491843 -31.907225 -109.059445 -57.836045 -1.254731
159.822 69.1834 10.6417 0.0 0.0 -0.0 0.0 0.0 -0.0 -0.0 -0.0 0.0 12.076931 10.538806 104.787978 -7.087137 14.355986 -105.012253 -0.0 -0.0 0.0 -0.0 -0.0 0.0 -155.504155 -3.514523 161.838528 -171.730711 -47.005088 157.363052 -0.909921 -43.508451 -3.425397 0.411013 -1.310848 0.049582 -0.491581 0.484673 0.077556 66.997358 -78.746013 -0.068282 -100.824001 37.73392 85.162146 -176.550703 -47.339815 121.841797 -5.53097 14.5636 3.524392 7.031783 -22.075184 -2.433644 0.004672 0.917785 0.288305 -166.382186 -50.811732 178.474729 8.368306 26.426704 7.36241 -27.471808 -40.286774 -25.919256 9.651699 34.836178 -11.199233 -7.342948 15.814737 2.867277 -5.529108 -63.361814 -2.034866 3.633505 11.581103 0.029161 -176.199446 -20.970899 -88.563122 71.379125 8.074917 -18.87251 50.386399 40.826202 -40.02487 175.572724 -27.037047 -120.521899 170.291364 -36.751085 -145.340408 -93.027524 -76.580798 -61.521647 72.350995 72.974965 -90.218005 154.482678 -23.237835 169.22712 -3.20069 9.007595 -2.916097 153.929701 24.967193 145.991071 -180.0 75.749642 -0.0 -180.0 75.749642 -0.0 0.185714 12.975477 -165.372783 25.093363 5.255869 168.532928 -180.0 75.749642 -0.0 -180.0 75.749642 -0.0 -0.185714 12.975477 165.372783 -31.60102 3.395374 -170.098598
160.554 69.2239 10.8884 0.0 0.0 0.0 0.0 0.0 -0.0 -0.0 -0.0 0.0 12.076931 10.538806 104.787978 -7.087137 14.355986 -105.012253 0.0 -0.0 -0.0 0.0 -0.0 -0.0 -155.504155 -3.514523 161.838528 -171.730711 -47.005088 157.363052 7.343897 -59.818393 3.680669 -4.728369 14.977491 0.106124 -6.400704 6.175885 1.319094 29.552801 -41.309628 -12.789581 -160.10123 -33.161924 122.700876 19.032327 7.845583 -6.760014 78.537123 -80.919176 49.688177 -159.118017 6.218225 138.515797 0.004561 0.876454 0.275323 -166.530845 -14.73509 173.69941 -142.201314 3.268081 -139.144618 -138.523597 -5.289042 -137.294762 9.651699 34.836178 -11.199233 -7.702052 27.978734 2.26007 -169.917792 68.789898 -158.112574 -175.098084 -3.119653 -145.09997 89.136032 38.427358 -50.299234 132.243889 -20.921498 -78.554218 72.555137 43.282432 -59.932742 18.028568 39.589156 -0.261391 169.08961 -33.247392 -145.374931 34.138945 54.335725 -31.857017 -0.000474 0.063839 -0.020056 3.389532 29.345999 -4.662193 86.000836 -50.498128 84.371009 7.425204 -25.249827 9.154265 -180.0 75.749642 -0.0 -180.0 75.749642 -0.0 3.578477 0.491843 31.907225 109.059445 -57.836045 1.254731 -180.0 75.749642 -0.0 -180.0 75.749642 -0.0 -3.578477 0.491843 -31.907225 -109.059445 -57.836045 -1.254731
